# xmcd
#
# Track frame offsets:
# 150
# 17740
# 34487
# 57566
# 79804
# 97083
# 118831
# 135743
# 151911
# 172300
# 193411
# 212105
# 231500
# 252907
# 273158
#
# Disc length: 3929 seconds
#
#
# Revision: 0
# Processed by: cddbd v1.4PL0 Copyright (c) Steve Scherf et al.
# Submitted via: FreeRIP 2.00 
#
DISCID=e80f570f
DTITLE=Αντώνης Ρέμος - Καρδιά μου μην ανυσηχείς
DYEAR=2002
DGENRE=Folk
TTITLE0=Καρδιά μου μην ανησυχείς
TTITLE1=Πες μου τι ζητάς
TTITLE2=Εκρυψα το προσωπό μου
TTITLE3=Δεν εχω να σου πω
TTITLE4=Τρέμω
TTITLE5=Ελα να με τελειωσεις
TTITLE6=Τι σου εχω κανει
TTITLE7=Παραδεχομαι
TTITLE8=Δεν τελειωσαμε
TTITLE9=Σ'αγαπω ειναι απλό
TTITLE10=Σαββατοβραδα
TTITLE11=Μη με ρωτάει κανεις
TTITLE12=Αρρωστημένο μου μυαλο
TTITLE13=Μετα απο όλα αυτά
TTITLE14=Σε εκδικήθηκα
EXTD=Ripped by semigod
EXTT0=
EXTT1=
EXTT2=
EXTT3=
EXTT4=
EXTT5=
EXTT6=
EXTT7=
EXTT8=
EXTT9=
EXTT10=
EXTT11=
EXTT12=
EXTT13=
EXTT14=
PLAYORDER=
